
<svg  version="1.1" viewBox="0 0 1200 1200" xmlns="http://www.w3.org/2000/svg">
 <g >
  <path d="m526.68 1107.1h-95.473c-11.027 0-19.98-8.9414-19.98-19.98v-134.86c0-11.027 8.9531-19.969 19.98-19.969h95.473c11.027 0 19.969 8.9414 19.969 19.969v134.84c0 11.051-8.9414 19.992-19.969 19.992zm-75.504-39.938h55.523v-94.922h-55.523z"/>
  <path d="m526.68 836.7h-95.473c-11.027 0-19.98-8.9414-19.98-19.957v-134.87c0-11.027 8.9531-19.98 19.98-19.98h95.473c11.027 0 19.969 8.9531 19.969 19.98v134.86c0 11.016-8.9414 19.969-19.969 19.969zm-75.504-39.945h55.523v-94.906h-55.523z"/>
  <path d="m526.68 566.27h-95.473c-11.027 0-19.98-8.9414-19.98-19.969v-134.84c0-11.027 8.9531-19.969 19.98-19.969h95.473c11.027 0 19.969 8.9414 19.969 19.969v134.84c0 11.027-8.9414 19.969-19.969 19.969zm-75.504-39.938h55.523v-94.906h-55.523z"/>
  <path d="m746.47 836.7h-95.473c-11.027 0-19.969-8.9414-19.969-19.957v-134.87c0-11.027 8.9414-19.98 19.969-19.98h95.473c11.027 0 19.969 8.9531 19.969 19.98v134.86c0 11.016-8.9414 19.969-19.969 19.969zm-75.504-39.945h55.535v-94.906h-55.535z"/>
  <path d="m746.47 566.27h-95.473c-11.027 0-19.969-8.9414-19.969-19.969v-134.84c0-11.027 8.9414-19.969 19.969-19.969h95.473c11.027 0 19.969 8.9414 19.969 19.969v134.84c0 11.027-8.9414 19.969-19.969 19.969zm-75.504-39.938h55.535v-94.906h-55.535z"/>
  <path d="m413.91 153.97c-11.027 0-19.969-8.9414-19.969-19.969l0.003907-115.04c0-11.027 8.9414-19.969 19.969-19.969h90.516c11.039 0 19.98 8.9414 19.98 19.969v34.957c0 11.027-8.9414 19.969-19.98 19.969-11.016 0-19.969-8.9414-19.969-19.969v-14.988h-50.578v95.074c0.007812 11.016-8.9414 19.969-19.973 19.969z"/>
  <path d="m856.92 302.72h-525.66c-8.4492 0-15.961-5.3047-18.805-13.246-2.8438-7.9453-0.38281-16.801 6.1445-22.152l262.84-215.51c7.3555-6.0352 17.953-6.0352 25.32 0l262.82 215.5c6.5156 5.3516 8.9766 14.219 6.1445 22.152-2.8477 7.957-10.371 13.258-18.805 13.258zm-469.81-39.945h413.96l-206.99-169.69z"/>
  <path d="m577.88 1200h-242.15c-11.027 0-19.969-8.9414-19.969-19.969l0.003906-830.09c0-11.027 8.9414-19.969 19.969-19.969 11.027 0 19.969 8.9414 19.969 19.969v810.12h222.18c11.039 0 19.98 8.9414 19.98 19.969-0.003907 11.023-8.9414 19.965-19.984 19.965z"/>
  <path d="m860.57 1200h-114.1c-11.027 0-19.969-8.9414-19.969-19.969l0.003906-208.58h-55.535v208.59c0 11.027-8.9414 19.969-19.969 19.969s-19.969-8.9414-19.969-19.969v-228.55c0-11.027 8.9414-19.969 19.969-19.969h95.473c11.027 0 19.969 8.9414 19.969 19.969v208.59h74.16v-810.12c0-11.027 8.9414-19.969 19.969-19.969 11.027 0 19.969 8.9414 19.969 19.969v830.09c-0.003906 11.023-8.9414 19.965-19.973 19.965z"/>
 </g>
</svg>
