
<svg  version="1.1" viewBox="0 0 1200 1200" xmlns="http://www.w3.org/2000/svg">
 <g >
 <path d="m1109.5 852.44c-25.5-188.2-90.754-352.65-181.04-469.92-75.656-98.262-168.83-163.15-270.59-180.54 102.03 132.44 112.38 572.67 105.77 793.51l345.86-143.05zm-158.39-487.42c94.926 123.29 162.98 296.48 188.12 494.08 1.0898 6.4453-2.375 13.012-8.6719 15.602l-379.56 156.6c-1.4297 0.23828-2.8867 0.30469-4.3242 0.066407-457.36-77.512-686.04-116.27-686.04-116.27 18.5-209.69 84.922-400.68 181.17-533.46 200.38-276.41 501.8-286.12 709.31-16.609zm-346.91-167.73c36.219 2.1992 68.41 73.406 92.691 190.52 34.172 164.81 44.848 393.31 37.953 612.72l-644.38-101.64c19.605-199 83.254-374.51 174.54-500.44 90.738-125.17 210.47-202.39 339.19-201.16zm382.48 414.88c2.043 7.6484-2.5039 15.512-10.152 17.555l-139.46 37.371c-7.6484 2.043-15.512-2.5039-17.555-10.152-38.266-143.07 128.89-187.65 167.17-44.773zm-32.074-6.2578-110.44 29.594c-14.805-90.137 78.203-115.12 110.44-29.594zm-367.98 289.09c32.734-224.79 6.7305-375.52-44.855-447.65-15.07-21.074-32.223-34.977-50.508-41.551l-71.578 463.41 166.95 25.789zm-21.527-464.25c-47.184-65.98-115.1-76.488-180-27.816-77.676 58.254-154.03 205.17-191.21 445.88-1.2617 8.1719 4.0977 15.305 13.234 16.512l389.34 60.141c7.8047 1.207 15.113-4.1406 16.32-11.945 35.719-242.91 10.324-401.65-47.684-482.77zm-102.11-29.316c-19.43 0.75-39.992 8.8281-60.734 24.383-70.891 53.168-141.12 189.01-177.74 413.25l166.89 25.781 71.574-463.41z" fill-rule="evenodd"/>
  </g>
</svg>
