<svg  version="1.1" viewBox="0 0 1200 1200" xmlns="http://www.w3.org/2000/svg">
 <g >
  <path d="m1065.6 89.445c-2.8125-9.0352-11.191-15.195-20.66-15.195h-890.14c-9.4688 0-17.848 6.1602-20.66 15.195l-66.23 212.4c-2.0508 6.5742-0.85547 13.727 3.2227 19.273 4.0781 5.5391 10.547 8.8125 17.438 8.8125h51.391v774.17c0 11.961 9.6914 21.645 21.645 21.645h876.53c11.953 0 21.645-9.6797 21.645-21.645v-774.16h51.391c0.0625-0.011719 0.14844-0.011719 0.21094 0 11.965 0 21.645-9.6914 21.645-21.645 0-3.3164-0.73828-6.457-2.0703-9.2695zm-420.35 993.02h-90.766v-190.62c0-25.023 20.363-45.379 45.367-45.379 25.035 0 45.398 20.352 45.398 45.379zm371.24 0h-327.95v-190.62c0-48.867-39.777-88.664-88.684-88.664-48.887 0-88.652 39.797-88.652 88.664v190.62h-327.96v-752.53h833.25zm-898.5-795.81 52.734-169.12h858.29l52.734 169.12z"/>
  <path d="m267.14 525.93h96.367c11.941 0 21.645-9.6914 21.645-21.641v-104.21c0-11.953-9.7031-21.645-21.645-21.645h-96.367c-11.953 0-21.645 9.6914-21.645 21.645v104.21c0 11.953 9.6914 21.641 21.645 21.641zm21.645-104.21h53.082v60.922h-53.082z"/>
  <path d="m456.86 525.93h96.355c11.953 0 21.645-9.6914 21.645-21.641v-104.21c0-11.953-9.6914-21.645-21.645-21.645h-96.355c-11.961 0-21.645 9.6914-21.645 21.645v104.21c0.003906 11.953 9.6836 21.641 21.645 21.641zm21.641-104.21h53.07v60.922h-53.07z"/>
  <path d="m646.57 525.93h96.367c11.953 0 21.645-9.6914 21.645-21.641v-104.21c0-11.953-9.6914-21.645-21.645-21.645h-96.367c-11.953 0-21.641 9.6914-21.641 21.645v104.21c0 11.953 9.6914 21.641 21.641 21.641zm21.645-104.21h53.082v60.922h-53.082z"/>
  <path d="m836.29 525.93h96.367c11.953 0 21.645-9.6914 21.645-21.641v-104.21c0-11.953-9.6914-21.645-21.645-21.645h-96.367c-11.953 0-21.645 9.6914-21.645 21.645v104.21c0 11.953 9.6953 21.641 21.645 21.641zm21.645-104.21h53.082v60.922h-53.082z"/>
  <path d="m267.14 755.31h96.367c11.941 0 21.645-9.6797 21.645-21.645v-104.2c0-11.965-9.7031-21.645-21.645-21.645h-96.367c-11.953 0-21.645 9.6797-21.645 21.645v104.2c0 11.961 9.6914 21.645 21.645 21.645zm21.645-104.2h53.082v60.91h-53.082z"/>
  <path d="m456.86 755.31h96.355c11.953 0 21.645-9.6797 21.645-21.645v-104.2c0-11.965-9.6914-21.645-21.645-21.645h-96.355c-11.961 0-21.645 9.6797-21.645 21.645v104.2c0.003906 11.961 9.6836 21.645 21.645 21.645zm21.641-104.2h53.07v60.91h-53.07z"/>
  <path d="m646.57 755.31h96.367c11.953 0 21.645-9.6797 21.645-21.645v-104.2c0-11.965-9.6914-21.645-21.645-21.645h-96.367c-11.953 0-21.641 9.6797-21.641 21.645v104.2c0 11.961 9.6914 21.645 21.641 21.645zm21.645-104.2h53.082v60.91h-53.082z"/>
  <path d="m836.29 755.31h96.367c11.953 0 21.645-9.6797 21.645-21.645v-104.2c0-11.965-9.6914-21.645-21.645-21.645h-96.367c-11.953 0-21.645 9.6797-21.645 21.645v104.2c0 11.961 9.6953 21.645 21.645 21.645zm21.645-104.2h53.082v60.91h-53.082z"/>
  <path d="m267.14 984.69h96.367c11.941 0 21.645-9.6797 21.645-21.641v-104.22c0-11.941-9.7031-21.645-21.645-21.645h-96.367c-11.953 0-21.645 9.6992-21.645 21.645v104.22c0 11.961 9.6914 21.641 21.645 21.641zm21.645-104.22h53.082v60.934l-53.082 0.003906z"/>
  <path d="m836.29 984.69h96.367c11.953 0 21.645-9.6797 21.645-21.641v-104.22c0-11.941-9.6914-21.645-21.645-21.645h-96.367c-11.953 0-21.645 9.6992-21.645 21.645v104.22c0 11.961 9.6953 21.641 21.645 21.641zm21.645-104.22h53.082v60.934h-53.082z"/>
  <path d="m957 215.62h-714.21c-11.953 0-21.645 9.6914-21.645 21.645s9.6914 21.641 21.645 21.641h714.21c11.953 0 21.641-9.6914 21.641-21.641 0-11.953-9.6914-21.645-21.645-21.645z"/>
  <path d="m349.2 188.57h501.4c11.953 0 21.645-9.6914 21.645-21.645 0-11.953-9.6914-21.641-21.645-21.641l-501.4-0.003906c-11.953 0-21.645 9.6914-21.645 21.641 0 11.957 9.6914 21.648 21.645 21.648z"/>
  <path d="m599.91 942.7c-12.027 0-21.77 9.7422-21.77 21.77s9.7422 21.77 21.77 21.77c12.016 0 21.758-9.7422 21.758-21.77s-9.7422-21.77-21.758-21.77z"/>
 </g>
</svg>
