<svg  version="1.1" viewBox="0 0 1200 1200" xmlns="http://www.w3.org/2000/svg">
  <g >
 <path d="m1019.3 102c-4.7734 0-9.3555 1.8945-12.73 5.2734-3.375 3.375-5.2695 7.9531-5.2695 12.727v228c-15.539-17.98-34.777-32.395-56.398-42.254-21.621-9.8555-45.117-14.93-68.883-14.867h-390.6c-1.6211-6.543-5.4102-12.344-10.746-16.461-5.3398-4.1172-11.91-6.3086-18.652-6.2188h-108c-9.6602 0.27734-18.594 5.1914-24 13.199-26.398-52.801-101.4-65.879-104.64-66.359-5.8125-0.94922-11.453 2.457-13.32 8.0391-3.2695 9.4141-5.7188 19.09-7.3203 28.922v-132c0-6.4297-3.4297-12.375-9-15.59-5.5664-3.2148-12.43-3.2148-18 0-5.5664 3.2148-9 9.1602-9 15.59v960c0 6.4297 3.4336 12.375 9 15.59 5.5703 3.2148 12.434 3.2148 18 0 5.5703-3.2148 9-9.1602 9-15.59v-84h120v7.5586c-0.0625 7.8516 2.9766 15.414 8.4609 21.031 5.4844 5.6211 12.969 8.8438 20.82 8.9688h652.8v46.441c0 6.4297 3.4297 12.375 9 15.59 5.5703 3.2148 12.43 3.2148 18 0 5.5703-3.2148 9-9.1602 9-15.59v-960c0-4.6914-1.8281-9.1992-5.1016-12.562-3.2734-3.3594-7.7305-5.3125-12.418-5.4375zm-664.8 676.68h96c0.99609 3.8906 2.793 7.5273 5.2812 10.68v208.2h-101.28zm-156-351.96h120v60h-120zm26.641-186.12c19.441 5.1602 60 19.32 76.441 51 16.441 31.68 7.4414 72 2.3984 89.52v0.003906c-26.582-5.0781-50.203-20.152-66-42.121-23.762-32.16-17.281-78-12.602-98.398zm775.92 204v78.359l-521.04 0.003907v-196.08h396c68.762 0 125.28 52.922 125.28 117.84zm-165.84 253.56h-141v-70.559h141zm-531 157.32c-26.578-5.0781-50.199-20.152-66-42.121-24-32.16-17.52-78-12.84-98.398 19.441 5.1602 60 19.441 76.441 51 16.438 31.559 7.4375 72.48 2.3984 89.52zm146.76-551.28c1.0195 3.918 2.8125 7.5898 5.2773 10.801v208.08h-101.76v-218.88zm-132 218.04v7.5625c0.089843 7.6953 3.1719 15.055 8.5938 20.516 5.418 5.4648 12.75 8.6094 20.445 8.7617h310.2v206.16h-172.8c-1.625-6.5273-5.418-12.316-10.758-16.414-5.3398-4.0977-11.91-6.2617-18.641-6.1445h-108c-9.6875 0.28516-18.633 5.25-24 13.32-26.398-52.801-101.4-65.879-104.64-66.359-5.8125-0.95312-11.453 2.4531-13.32 8.0391-3.0664 9.668-5.2734 19.586-6.5977 29.641v-204zm-120 255.36v0.003906c2.4805 18.18 9.3594 35.477 20.039 50.398 11.34 15.309 25.773 28.066 42.359 37.441h-62.641zm281.52 24 395.52 0.003906c69.359 0 125.88 52.922 125.88 117.84v78.48h-521.88zm213.96-36v-49.438h140.76v49.078zm141-156-141.24 0.003906v-50.523h141zm-616.44-256.2c11.34 15.281 25.773 27.996 42.359 37.32h-62.641v-87.48c2.5938 18.121 9.5508 35.336 20.281 50.16zm-20.281 607.2v-60h120v60zm677.28-195.36h-4.8008v-206.16h130.08v264c-15.473-18.109-34.68-32.66-56.305-42.645s-45.156-15.168-68.977-15.195z"/>
  </g>
</svg>
