
<svg  version="1.1" viewBox="0 0 1200 1200" xmlns="http://www.w3.org/2000/svg">
 <g >
  <path d="m984 972.84h-51.84v-460.08c-0.0625-68.406-27.266-134-75.637-182.36-48.371-48.371-113.96-75.574-182.36-75.637h-56.16v-54.84c24.668-5.9297 44.836-23.625 53.926-47.312 9.0898-23.684 5.9336-50.328-8.4375-71.238-14.371-20.906-38.117-33.398-63.488-33.398s-49.117 12.492-63.488 33.398c-14.371 20.91-17.527 47.555-8.4375 71.238 9.0898 23.688 29.258 41.383 53.926 47.312v54.84h-56.16c-68.406 0.0625-133.99 27.266-182.36 75.637-48.371 48.367-75.574 113.96-75.637 182.36v460.08h-51.84c-6.4297 0-12.375 3.4297-15.59 9-3.2148 5.5703-3.2148 12.43 0 18 3.2148 5.5703 9.1602 9 15.59 9h160.2c-18.176 13.184-29.902 33.461-32.262 55.789-2.3594 22.332 4.8711 44.613 19.891 61.301 15.02 16.691 36.418 26.223 58.871 26.223s43.852-9.5312 58.871-26.223c15.02-16.688 22.25-38.969 19.891-61.301-2.3594-22.328-14.086-42.605-32.262-55.789h283.2c-18.195 13.172-29.941 33.449-32.316 55.785-2.3711 22.336 4.8477 44.629 19.871 61.332 15.02 16.699 36.426 26.238 58.887 26.238 22.461 0 43.867-9.5391 58.887-26.238 15.023-16.703 22.242-38.996 19.871-61.332-2.375-22.336-14.121-42.613-32.316-55.785h138.72c6.4297 0 12.375-3.4297 15.59-9 3.2148-5.5703 3.2148-12.43 0-18-3.2148-5.5703-9.1602-9-15.59-9zm-425.04-847.8c0-10.883 4.3242-21.32 12.02-29.02 7.6953-7.6953 18.137-12.02 29.02-12.02s21.324 4.3242 29.02 12.02c7.6953 7.6992 12.02 18.137 12.02 29.02 0 10.887-4.3242 21.324-12.02 29.02-7.6953 7.6992-18.137 12.02-29.02 12.02s-21.324-4.3203-29.02-12.02c-7.6953-7.6953-12.02-18.133-12.02-29.02zm-136.2 990.96c-11.465 0.03125-22.473-4.4961-30.598-12.582-8.125-8.0859-12.703-19.074-12.723-30.539-0.023437-11.465 4.5156-22.465 12.609-30.582s19.086-12.688 30.551-12.695c11.461-0.011718 22.461 4.5352 30.57 12.637 8.1094 8.1016 12.668 19.098 12.668 30.562 0 11.438-4.5352 22.406-12.609 30.504-8.0781 8.0977-19.035 12.664-30.469 12.695zm376.08 0c-11.457 0-22.445-4.5508-30.547-12.652-8.1016-8.1016-12.652-19.09-12.652-30.547s4.5508-22.445 12.652-30.547c8.1016-8.1016 19.09-12.652 30.547-12.652 11.457 0 22.445 4.5508 30.547 12.652 8.1016 8.1016 12.652 19.09 12.652 30.547s-4.5508 22.445-12.652 30.547c-8.1016 8.1016-19.09 12.652-30.547 12.652zm-495-143.16v-460.08c0.0625-58.859 23.473-115.29 65.094-156.91 41.617-41.617 98.047-65.027 156.91-65.09h56.16v96.602h-96v-0.003906c-6.4297 0-12.375 3.4297-15.59 9s-3.2148 12.43 0 18 9.1602 9 15.59 9h227.52c6.4297 0 12.375-3.4297 15.59-9s3.2148-12.43 0-18-9.1602-9-15.59-9h-96v-96h56.16c58.859 0.0625 115.29 23.473 156.91 65.094 41.621 41.617 65.031 98.047 65.094 156.91v459.48z"/>
  <path d="m812.4 594h-133.56v-16.32c0-13.176-5.2344-25.812-14.551-35.129-9.3164-9.3164-21.953-14.551-35.129-14.551h-68.52c-13.156 0-25.773 5.2188-35.086 14.508-9.3164 9.293-14.562 21.898-14.594 35.051v16.441h-121.68c-15.32 0-30.016 6.0781-40.859 16.898-10.844 10.82-16.949 25.504-16.98 40.82v235.44c0.03125 15.32 6.1367 30 16.98 40.82 10.844 10.82 25.539 16.898 40.859 16.898h423.12c15.301-0.03125 29.965-6.1211 40.781-16.941 10.816-10.816 16.91-25.48 16.941-40.777v-235.44c-0.03125-15.297-6.125-29.961-16.941-40.777-10.816-10.816-25.48-16.91-40.781-16.941zm-79.68 36v278.88h-254.04v-278.88zm-185.76-52.32c0-3.6289 1.4414-7.1055 4.0039-9.6719 2.5664-2.5664 6.0469-4.0078 9.6758-4.0078h68.52c7.5078 0 13.613 6.0508 13.68 13.559v16.441h-96zm-180 309.48v-235.44c0.03125-5.7695 2.3477-11.293 6.4375-15.363 4.0938-4.0703 9.6289-6.3555 15.402-6.3555h65.398v278.88h-64.918c-5.7734 0-11.309-2.2852-15.402-6.3516-4.0938-4.0703-6.4062-9.5977-6.4375-15.367zm466.68 0c0 5.7617-2.2891 11.285-6.3633 15.359-4.0742 4.0703-9.5977 6.3594-15.355 6.3594h-55.203v-278.88h55.68c5.7617 0 11.285 2.2891 15.359 6.3633 4.0742 4.0703 6.3633 9.5977 6.3633 15.355z"/>
  <path d="m540 740.28c12.73 0 24.938-5.0586 33.941-14.059 9-9.0039 14.059-21.211 14.059-33.941s-5.0586-24.941-14.059-33.941c-9.0039-9.0039-21.211-14.059-33.941-14.059s-24.938 5.0547-33.941 14.059c-9 9-14.059 21.211-14.059 33.941s5.0586 24.938 14.059 33.941c9.0039 9 21.211 14.059 33.941 14.059zm0-72c6.3633 0 12.469 2.5273 16.969 7.0273 4.5039 4.5 7.0312 10.605 7.0312 16.973 0 6.3633-2.5273 12.469-7.0312 16.969-4.5 4.5-10.605 7.0312-16.969 7.0312s-12.469-2.5312-16.969-7.0312c-4.5039-4.5-7.0312-10.605-7.0312-16.969 0.0625-6.3242 2.6211-12.367 7.1133-16.816 4.4961-4.4492 10.562-6.9453 16.887-6.9453z"/>
  <path d="m669 804c-1.957-6.2656-8.5898-9.793-14.879-7.9219l-86.879 26.398-0.003907 0.003907c-6.3242 1.957-9.8711 8.6719-7.918 15l15.121 50.52c0.94141 3.0469 3.0547 5.5938 5.8789 7.0781 2.8281 1.4062 6.082 1.7031 9.1211 0.84375l86.879-26.52v-0.003906c6.2305-2.0586 9.6523-8.7383 7.6797-15zm-75.121 64.922-8.1602-26.879 63.84-19.559 8.2812 26.879z"/>
  <path d="m612 764.4 90.238 9.8398h1.3203c2.75 0.011719 5.418-0.91797 7.5625-2.6367 2.4414-2.0078 3.9922-4.8984 4.3203-8.043l5.7617-51.84h-0.003906c0.34375-3.1914-0.60547-6.3906-2.6406-8.8789-2.0039-2.4414-4.8945-3.9961-8.0391-4.3203l-90.238-9.9609c-3.168-0.33594-6.3398 0.60156-8.8164 2.6055-2.4727 2.0039-4.0508 4.9102-4.3867 8.0742l-5.6406 51.719 0.003906 0.003907c-0.40625 3.1875 0.48047 6.4023 2.4648 8.9297 1.9883 2.5234 4.9023 4.1484 8.0938 4.5078zm17.641-50.52 66.359 7.1992-3 27.961-66.48-7.1992z"/>
 </g>
</svg>
