
<svg  version="1.1" viewBox="0 0 1200 1200" xmlns="http://www.w3.org/2000/svg">
 <g >
  <path d="m1126 514.08-105.96-70.078v-176.4c0-4.7773-1.8945-9.3555-5.2734-12.73-3.375-3.375-7.9531-5.2695-12.727-5.2695h-72c-4.7734 0-9.3516 1.8945-12.727 5.2695-3.3789 3.375-5.2734 7.9531-5.2734 12.73v104.4l-302.04-201.96c-2.9414-1.9922-6.4102-3.0547-9.9609-3.0547s-7.0195 1.0625-9.9609 3.0547l-516 344.04c-4.3359 2.4727-7.4531 6.6367-8.6055 11.496s-0.23047 9.9766 2.5391 14.133c2.7695 4.1523 7.1406 6.9688 12.066 7.7773 4.9297 0.80469 9.9727-0.46875 13.922-3.5234l506.04-337.32 506.04 337.32c2.9453 1.9766 6.4141 3.0234 9.9609 3 5.2031 0.066406 10.18-2.1367 13.625-6.0352 3.4492-3.8984 5.0273-9.1055 4.3203-14.266-0.70312-5.1562-3.6172-9.75-7.9844-12.582zm-177.96-228.48h36v130.56l-36-24z"/>
  <path d="m966.24 520.2c-4.7734 0-9.3516 1.8984-12.727 5.2734s-5.2734 7.9531-5.2734 12.727v476.76c0 6.4297 3.4336 12.371 9 15.586 5.5703 3.2188 12.434 3.2188 18 0 5.5703-3.2148 9-9.1562 9-15.586v-476.76c0-4.7734-1.8945-9.3516-5.2695-12.727s-7.9531-5.2734-12.73-5.2734z"/>
  <path d="m225.48 525.48c-4.7734 0-9.3516 1.8945-12.727 5.2734-3.3789 3.375-5.2734 7.9531-5.2734 12.727v471.48c0 6.4297 3.4297 12.371 9 15.586 5.5703 3.2188 12.43 3.2188 18 0 5.5703-3.2148 9-9.1562 9-15.586v-471.48c0-4.7734-1.8984-9.3516-5.2734-12.727-3.375-3.3789-7.9531-5.2734-12.727-5.2734z"/>
  <path d="m801.48 750h-281.52c-2.0273-4.9141-5.4727-9.1172-9.8984-12.066-4.4219-2.9492-9.625-4.5117-14.941-4.4922h-78.84c-6.9258 0-13.586 2.6641-18.602 7.4375-22.801-36-75.84-43.922-78.121-44.281v0.003906c-2.9141-0.35937-5.8633 0.36719-8.2773 2.0391v-24c0-6.4297-3.4336-12.375-9-15.59-5.5703-3.2148-12.434-3.2148-18 0-5.5703 3.2148-9 9.1602-9 15.59v337.56c0 6.4297 3.4297 12.375 9 15.59 5.5664 3.2148 12.43 3.2148 18 0 5.5664-3.2148 9-9.1602 9-15.59v-40.199h78.719c1.0508 6.1992 4.2734 11.82 9.0859 15.863 4.8125 4.0469 10.906 6.25 17.195 6.2148h447.72v18c0 6.4336 3.4297 12.375 9 15.59 5.5703 3.2148 12.43 3.2148 18 0 5.5703-3.2148 9-9.1562 9-15.59v-18.117c6.5078-0.62109 12.555-3.6211 16.984-8.4297 4.4297-4.8047 6.9258-11.078 7.0156-17.609v-99.961c-0.75391-31.84-14.051-62.094-36.996-84.184-22.941-22.09-53.68-34.23-85.523-33.777zm-474.36-27.238c14.879 3.7188 40.922 13.078 51.719 33.238 8.3711 19.145 9.8984 40.586 4.3203 60.719-17.586-3.6719-33.262-13.555-44.16-27.84-16.441-20.879-14.398-50.398-11.879-66.117zm98.398 46.68h62.16c1.0703 2.4648 2.4844 4.7695 4.1992 6.8398v181.92h-66.359zm463.2 98.52v90.238h-372.72v-172.2h285.6c22.402-0.61328 44.137 7.6602 60.461 23.016 16.32 15.355 25.906 36.547 26.656 58.945zm-577.44-78.242c2.4609 5.0547 5.4336 9.8398 8.8789 14.281 5.25 6.5586 11.25 12.48 17.879 17.641h-26.758zm0 67.801h77.879v78.48h-77.16z"/>
 </g>
</svg>
