
<svg  version="1.1" viewBox="0 0 1200 1200" xmlns="http://www.w3.org/2000/svg">
 <g >
 <path d="m1186.2 867.32c4.6992 2.3672 10.422 0.47656 12.789-4.2227 2.3672-4.6992 0.47656-10.422-4.2227-12.789-2.8047-1.4102-44.918-22.18-118.14-35.574v-183.89c0-54.223-44.113-98.34-98.34-98.34l-227.3 0.003907c-2.5781-4.918-5.25-9.7891-7.9844-14.625 9.8828-12.055 38.648-43.953 71.848-51.469 41.836-9.4688 95.422 8.2383 95.957 8.418 4.9844 1.6797 10.383-1.0039 12.059-5.9844 1.6797-4.9844-1-10.387-5.9844-12.066-2.3906-0.80469-59.117-19.602-106.24-8.9453-34.875 7.8945-64.004 36.688-77.93 52.668-58.441-94.168-150-168.18-293.51-168.18-75.18 0-141.52 20.656-197.18 61.391-46.734 34.203-86.359 82.867-117.77 144.63-54.312 106.79-72.477 229.91-78.539 298.71-21.727 1.957-36.035 4.168-37.66 4.4219-5.1953 0.82031-8.7422 5.6992-7.9219 10.891 0.82031 5.1953 5.6914 8.7461 10.891 7.9219 1.1211-0.17188 113.18-17.445 199.28 2.2461 84.859 19.406 146.63 86.973 147.24 87.648 1.8828 2.0898 4.4727 3.1484 7.082 3.1484 2.2695 0 4.5508-0.80859 6.3672-2.4453 3.9102-3.5195 4.2227-9.5391 0.70313-13.449-1.1445-1.2695-13.586-14.898-34.594-31.668h277.52c-23.371 15.242-37.211 26.434-38.965 27.871-4.0664 3.332-4.6641 9.332-1.332 13.398 1.8828 2.3008 4.6172 3.4922 7.375 3.4922 2.1211 0 4.2578-0.70312 6.0273-2.1484 1.3867-1.1367 140.54-113.43 314.19-124.34 173.95-10.918 283.21 42.734 284.29 43.273zm-207.91-315.77c43.723 0 79.289 35.57 79.289 79.289v100.02h-43.449c4.8633-7.0625 7.7305-15.602 7.7305-24.809v-62.852c0-24.18-19.672-43.855-43.855-43.855h-6.8594c-24.184 0-43.855 19.672-43.855 43.855v62.852c0 9.2031 2.8633 17.746 7.7305 24.809h-117.37c-11.004-55.883-28.703-119.52-57.16-179.31zm-31.953 154.5v-62.852c0-13.68 11.129-24.809 24.809-24.809h6.8594c13.68 0 24.809 11.129 24.809 24.809v62.852c0 13.68-11.129 24.809-24.809 24.809h-6.8594c-13.676 0-24.809-11.129-24.809-24.809zm-429.54 180.68h-68.062v-120.18h68.062zm0-143.42v4.1953h-68.062v-141.48h130.13c4.3984 15.059 8.3984 30.504 12.004 46.34-42.223 8.7109-74.07 46.18-74.07 90.949zm-335.74-137.29h98.922c-12.578 44.074-21.852 91.188-27.855 141.48l-112.34-0.003906c8.8398-51.383 22.617-98.559 41.277-141.48zm-60.621 141.48h-43.457c7.9414-43.645 20.016-92.918 38.352-141.48h44.844c-17.941 43.141-31.195 90.32-39.738 141.48zm609.22-214.79c9.6797 17.637 18.277 35.824 25.941 54.258h-45.691c-21.082-45.723-47.734-86.625-79.895-122.66h53.457c16.797 20.141 32.211 42.926 46.188 68.398zm71.871 214.79h-43.547c-8.5391-51.168-21.793-98.344-39.734-141.48h44.918c18.172 47.969 30.293 96.867 38.363 141.48zm-112.89-160.53h-95.613c-13.746-44.02-30.953-84.801-51.715-122.66h62.461c34.254 35.598 62.562 76.504 84.867 122.66zm-258.95-141.7h-59.098c17.52-28.211 37.215-54.559 59.098-79.117zm19.047-79.191c22.062 24.703 41.816 51.059 59.352 79.191h-59.352zm-19.047 98.238v122.66h-124.01c14.246-44.145 32.07-84.984 53.547-122.66zm19.047 0h70.723c21.555 37.699 39.355 78.48 53.559 122.66h-124.28zm81.68-19.047c-15.688-26.301-33.203-51.133-52.609-74.594 39.836 20.93 75.352 45.812 106.52 74.594zm-182.13 0h-54.188c31.195-28.801 66.746-53.699 106.62-74.645-19.293 23.387-36.746 48.266-52.43 74.645zm-10.891 19.047c-20.711 37.844-37.922 78.688-51.707 122.66h-95.902c22.305-46.148 50.609-87.059 84.863-122.66zm-37.566 141.71h129.86v141.48h-158.39c6.1406-50.434 15.645-97.535 28.535-141.48zm310.13 44.43c-3.4062-15.156-7.168-29.961-11.277-44.43h98.684c18.66 42.926 32.438 90.102 41.277 141.48h-36.113v-4.1953c0-51.109-41.504-92.699-92.57-92.859zm92.57 116.1h39.137c3.3555 23.051 5.7539 46.922 7.1992 71.594-16.355 6.0234-31.844 12.504-46.336 19.156zm58.391 0h43.852c2.9648 18.484 5.2539 36.051 7.0078 52.281-15.266 3.7422-30.031 8.0508-44.227 12.762-1.4375-22.328-3.6523-44.008-6.6328-65.043zm-94.469-321.28h-54.395c-35.363-35.477-76.637-65.711-123.77-90.625 69.617 9.5 129.2 39.801 178.16 90.625zm-276.26-90.66c-47.16 24.922-88.457 55.168-123.84 90.66h-54.402c48.969-50.844 108.55-81.18 178.24-90.66zm-248.96 192.36c15.914-31.289 33.84-58.824 53.695-82.656h53.477c-32.164 36.027-58.809 76.938-79.891 122.66h-45.652c5.6016-13.5 11.703-26.883 18.371-40zm-67.523 219.58h43.793c-3.082 21.777-5.3438 44.25-6.7773 67.414-16.453 0.042969-31.984 0.69141-45.75 1.5898 1.7734-19.406 4.5156-42.918 8.7344-69.004zm56.082 67.648c1.4648-23.27 3.7852-45.824 6.9609-67.648h113.27c-2.8203 27.797-4.6719 56.551-5.5742 86.266-9.582-3.4609-19.551-6.4844-29.887-8.8516-27.41-6.2656-56.891-9.0039-84.766-9.7656zm133.5 26.184c0.8125-32.438 2.7539-63.719 5.8672-93.832h160.54v120.18h-118.71c-13.973-9.2656-29.984-18.473-47.688-26.344zm272.56 26.344v-143.42c0-40.703 33.113-73.816 73.816-73.816s73.82 33.113 73.82 73.816v123.1c-13.742 6.8398-26.387 13.707-37.824 20.316l-109.81 0.003906zm294.63-72.117c-2.1172-19.164-5.0938-41.051-9.2656-64.707h236.37v61.633c-43.418-6.6328-96.156-10.316-156.86-6.5039-24.227 1.5273-47.711 4.8945-70.242 9.5781zm369.22 250.84c-1.3477 5.082-6.5547 8.125-11.645 6.7656-0.28906-0.074219-30.027-7.7383-54.539-1.2773-10.027 2.6445-21.645 10.688-33.938 19.207-18.566 12.859-37.766 26.16-58.43 26.16-15.395 0-30.363-5.8672-46.211-12.074-18.664-7.3125-39.82-15.605-65.566-15.605-44.352 0-78.809 37.301-79.148 37.676-1.8828 2.0625-4.4648 3.1172-7.0547 3.1172-2.2812 0-4.5703-0.8125-6.3945-2.4648-3.8906-3.5273-4.1953-9.5391-0.67188-13.438 1.6211-1.793 40.328-43.938 93.27-43.938 29.348 0 52.281 8.9883 72.52 16.918 14.734 5.7773 27.465 10.766 39.258 10.766 14.711 0 31.422-11.574 47.582-22.77 13.711-9.4961 26.66-18.473 39.93-21.973 29.449-7.7617 62.867 0.91016 64.273 1.2852 5.082 1.3477 8.1133 6.5625 6.7656 11.645zm-771.56-67.109c-0.55078 0-1.1133-0.050781-1.6797-0.14844l-32.172-5.7188c-5.1797-0.92187-8.6328-5.8672-7.7109-11.047 0.92188-5.1797 5.8672-8.6172 11.047-7.7109l32.172 5.7188c5.1797 0.92188 8.6328 5.8672 7.7109 11.047-0.82422 4.6172-4.8398 7.8594-9.3672 7.8594zm126.58 4.3711c1.0117 5.1602-2.3516 10.168-7.5156 11.176l-36.461 7.1484c-0.61719 0.125-1.2344 0.17969-1.8438 0.17969-4.4609 0-8.4453-3.1484-9.3359-7.6914-1.0117-5.1602 2.3516-10.168 7.5156-11.176l36.461-7.1484c5.1523-1.0352 10.168 2.3477 11.18 7.5117zm165.55 10.461-33.598 15.727c-1.3047 0.60938-2.6797 0.89844-4.0312 0.89844-3.582 0-7.0117-2.0312-8.6328-5.4883-2.2305-4.7656-0.17578-10.438 4.5898-12.664l33.602-15.73c4.7617-2.2227 10.434-0.17578 12.66 4.5898 2.2305 4.7656 0.17578 10.434-4.5898 12.668zm-338.75 92.039c1.2148 5.1172-1.9492 10.25-7.0625 11.465l-35.699 8.4805c-0.74219 0.17578-1.4805 0.25781-2.2109 0.25781-4.3125 0-8.2188-2.9492-9.2578-7.3281-1.2148-5.1172 1.9492-10.25 7.0625-11.465l35.699-8.4805c5.1211-1.2227 10.254 1.9492 11.469 7.0703zm165.32 26.34c-0.48438 4.9141-4.6289 8.5859-9.4648 8.5859-0.3125 0-0.63281-0.015625-0.94922-0.046875l-40.605-4.0195c-5.2344-0.51953-9.0586-5.1797-8.5391-10.414 0.51562-5.2344 5.1719-9.082 10.418-8.5391l40.605 4.0195c5.2305 0.51953 9.0508 5.1797 8.5352 10.414zm206.19-32.852c1.6055 5.0078-1.1523 10.371-6.1602 11.977l-44.531 14.277c-0.96484 0.3125-1.9453 0.45703-2.9102 0.45703-4.0273 0-7.7695-2.5781-9.0664-6.6172-1.6055-5.0078 1.1523-10.371 6.1602-11.977l44.531-14.277c5.0078-1.6055 10.371 1.1523 11.977 6.1602zm93.301-128.34c4.9609 1.7461 7.5664 7.1875 5.8164 12.148-1.3789 3.9141-5.0586 6.3633-8.9805 6.3633-1.0508 0-2.1172-0.17188-3.1641-0.54688l-36.727-12.941c-4.9609-1.7461-7.5664-7.1875-5.8164-12.148 1.7461-4.9609 7.1875-7.5703 12.148-5.8164zm124.85 10.367 21.863 25.48c3.4219 3.9922 2.9648 10.004-1.0273 13.43-1.7969 1.5391-4.0039 2.2969-6.1992 2.2969-2.6797 0-5.3477-1.1289-7.2344-3.3242l-21.863-25.48c-3.4219-3.9922-2.9648-10.004 1.0273-13.43s10.008-2.9609 13.434 1.0273zm95.188-66.039c1.4531 5.0547-1.4688 10.332-6.5234 11.785l-40.387 11.602c-0.87891 0.25-1.7656 0.37109-2.6328 0.37109-4.1367 0-7.9492-2.7227-9.1484-6.8945-1.4531-5.0547 1.4688-10.332 6.5234-11.785l40.387-11.602c5.0508-1.4492 10.328 1.4688 11.781 6.5234zm85.195-4.082-30.789-11.656c-4.918-1.8633-7.3984-7.3633-5.5352-12.277 1.8633-4.918 7.3594-7.3906 12.277-5.5352l30.789 11.656c4.918 1.8633 7.3984 7.3633 5.5352 12.277-1.4414 3.8086-5.0625 6.1562-8.9062 6.1562-1.1211 0-2.2578-0.20312-3.3711-0.62109zm-7.5039 57.359c1.3555 5.082-1.668 10.301-6.7461 11.656l-33.465 8.9219c-0.82031 0.21875-1.6484 0.32422-2.4609 0.32422-4.2109 0-8.0586-2.8125-9.1953-7.0742-1.3555-5.082 1.668-10.301 6.7461-11.656l33.465-8.9219c5.0859-1.3477 10.301 1.668 11.656 6.75zm-239.64-73.852c0 10.125-8.207 18.332-18.332 18.332s-18.332-8.207-18.332-18.332 8.207-18.332 18.332-18.332 18.332 8.207 18.332 18.332zm-268.81 91.844c0 10.125-8.207 18.332-18.332 18.332s-18.332-8.207-18.332-18.332 8.207-18.332 18.332-18.332c10.125-0.003906 18.332 8.2031 18.332 18.332zm196.15 64.008c0 10.125-8.207 18.332-18.332 18.332s-18.332-8.207-18.332-18.332 8.207-18.332 18.332-18.332 18.332 8.207 18.332 18.332zm-362.15 28.648c0 10.125-8.207 18.332-18.332 18.332s-18.332-8.207-18.332-18.332 8.207-18.332 18.332-18.332 18.332 8.207 18.332 18.332zm-190.83-60.613c-10.125 0-18.332-8.207-18.332-18.332s8.207-18.332 18.332-18.332 18.332 8.207 18.332 18.332c-0.003906 10.125-8.2109 18.332-18.332 18.332zm19.938 50.008c3.6953 3.7422 3.6562 9.7734-0.089843 13.469-1.8555 1.832-4.2734 2.7461-6.6914 2.7461-2.457 0-4.9141-0.94531-6.7773-2.832-0.41797-0.42188-42.68-42.762-81.68-49.023-39.957-6.418-78.352 3.918-78.734 4.0273-5.0625 1.4062-10.309-1.5859-11.707-6.6562-1.3945-5.0664 1.5742-10.309 6.6406-11.707 1.7227-0.47656 42.645-11.57 86.82-4.4727 45.195 7.2539 90.32 52.523 92.219 54.449zm357.28-752.52c42.398 30.156 79.012 56.199 107.32 56.199 41.324 0 78.574-21.883 114.6-43.047 20.855-12.254 40.555-23.824 59.852-30.227 30.289-10.051 61.66-9.1758 91.996-8.3398 22.836 0.63672 44.395 1.2344 64.789-2.6367 45.43-8.625 88.336-57.062 88.762-57.551 3.4648-3.9531 9.4805-4.3555 13.438-0.89062 3.9531 3.4648 4.3594 9.4727 0.89453 13.434-1.918 2.1953-47.602 53.859-99.543 63.723-22.414 4.2539-46.027 3.6055-68.867 2.9648-28.688-0.79297-58.359-1.6172-85.469 7.3828-17.383 5.7656-36.238 16.844-56.199 28.57-36.441 21.406-77.742 45.672-124.25 45.672-34.398 0-73.309-27.676-118.37-59.723-52.516-37.352-112.04-79.684-180.4-91.504-87.074-15.051-140.05-0.50781-178.73 10.113-18.121 4.9766-33.773 9.2734-48.539 9.2734-22.715 0-44.363-9.0508-65.305-17.801-21.652-9.0508-44.043-18.406-68.312-18.406-46.305 0-87.711 33.234-88.125 33.574-4.0781 3.3203-10.074 2.707-13.395-1.3672-3.3203-4.0742-2.7188-10.062 1.3516-13.387 1.8867-1.5586 46.949-37.871 100.16-37.871 28.09 0 52.273 10.105 75.656 19.879 20.094 8.3945 39.066 16.324 57.961 16.324 12.199 0 26.008-3.793 43.492-8.5938 40.41-11.094 95.746-26.297 187.02-10.512 72.629 12.559 134.02 56.223 188.2 94.746zm464.38 132.8c-30.254-10.449-80.617 1.4727-81.125 1.5938-5.1172 1.2227-10.258-1.918-11.488-7.0273-1.2344-5.1133 1.9102-10.254 7.0195-11.488 2.2812-0.55078 56.266-13.355 91.809-1.082 35.527 12.266 69.902 55.078 71.348 56.895 3.2734 4.1133 2.5938 10.102-1.5156 13.379-1.7539 1.3945-3.8477 2.0742-5.9297 2.0742-2.8008 0-5.5742-1.2305-7.4531-3.5898-0.32422-0.39844-32.398-40.305-62.664-50.754zm5.957 179.7c2.3477-4.707 8.0664-6.6172 12.77-4.2734l55.629 27.734c4.707 2.3477 6.6211 8.0664 4.2734 12.773-1.668 3.3398-5.0352 5.2773-8.5312 5.2773-1.4297 0-2.875-0.32422-4.2422-1.0039l-55.629-27.734c-4.7031-2.3477-6.6172-8.0664-4.2695-12.773zm-341.37-377.96c-3.8984 0.36328-7.1797 3.0781-8.2656 6.8398-1.0898 3.7617 0.24219 7.8086 3.3477 10.191 20.34 15.625 44.652 23.879 70.309 23.879 63.711 0 115.54-51.832 115.54-115.54 0-63.707-51.832-115.54-115.54-115.54-53.762 0-101.2 38.062-112.79 90.512-0.84375 3.8242 0.73828 7.7773 3.9883 9.9609 3.2539 2.1836 7.5078 2.1523 10.73-0.070313 8.2695-5.7227 17.965-8.7461 28.043-8.7461 27.223 0 49.371 22.148 49.371 49.371 0 25.645-19.23 46.773-44.73 49.148zm63.777-49.152c0-37.727-30.691-68.418-68.418-68.418-5.9414 0-11.789 0.75781-17.43 2.2422 15.594-33.262 49.656-55.797 87.461-55.797 53.207 0 96.496 43.289 96.496 96.496 0 53.207-43.289 96.496-96.496 96.496-14.34 0-28.18-3.0898-40.855-9.0469 23.422-10.93 39.242-34.594 39.242-61.973z" />
 </g>
</svg>
